<svg xmlns="http://www.w3.org/2000/svg" width="1000" height="1200" viewBox="0 0 1000 1200"><rect width="1000" height="1200" fill="#FAF8F3"/><polygon points="0,0 1000,0 1000,380 0,680" fill="#E8DFD1"/><polygon points="0,535 1000,240 1000,440 0,745" fill="#0057FF"/><polygon points="0,880 1000,630 1000,790 0,1040" fill="#FF6A00"/><rect x="115" y="130" width="770" height="330" rx="24" fill="#FAF8F3"/><g transform="translate(75 120) scale(.8)"><g transform="translate(70 40)"><polygon points="20,105 104,38 91,105 161,78 137,154 72,177" fill="#1F1F1F"/><text x="145" y="164" font-family="Inter,Arial,sans-serif" font-size="122" font-weight="900" font-style="italic" letter-spacing="-9" fill="#1F1F1F">Aspect</text><polygon points="458,48 728,35 694,58 450,69" fill="#0057FF"/><polygon points="586,190 742,177 711,224 551,220" fill="#FF6A00"/><polygon points="718,110 774,77 750,166 790,184 710,199" fill="#1F1F1F"/></g></g><text x="500" y="1110" text-anchor="middle" font-family="Inter,Arial,sans-serif" font-size="28" font-weight="600" letter-spacing="7" fill="#1F1F1F">MAIS QUE ROUPAS, NOVAS PERSPECTIVAS.</text></svg>