<svg xmlns="http://www.w3.org/2000/svg" viewBox="0 0 200 70" role="img">
<path d="M 86 64 L 87 63 L 88 64 L 87 65 Z M 40 64 L 41 63 L 42 64 L 41 65 Z M 158 63 L 160 66 L 162 65 L 163 66 L 165 66 L 161 65 Z M 35 60 L 36 59 L 37 60 L 36 61 Z M 108 55 L 109 54 L 110 56 L 109 57 Z M 109 54 L 110 53 L 111 54 L 110 55 Z M 97 56 L 97 54 L 99 52 L 103 54 L 99 57 Z M 62 52 L 63 53 L 63 55 L 61 57 L 59 57 L 58 56 Z M 110 52 L 111 51 L 112 52 L 111 53 Z M 143 44 L 142 45 L 131 48 L 124 55 L 123 55 L 124 62 L 127 64 L 135 65 L 138 61 L 138 59 L 137 60 L 136 59 L 134 59 L 132 58 L 131 56 L 137 50 L 138 50 L 143 45 Z M 127 48 L 125 49 L 113 50 L 112 51 L 111 50 L 107 50 L 106 49 L 102 49 L 101 48 L 99 48 L 98 49 L 94 49 L 93 50 L 93 52 L 91 55 L 91 57 L 89 60 L 89 63 L 88 64 L 87 63 L 87 60 L 82 56 L 80 56 L 79 55 L 82 53 L 87 53 L 91 49 L 91 48 L 89 49 L 79 50 L 71 55 L 78 61 L 76 63 L 68 67 L 67 65 L 68 64 L 68 60 L 69 59 L 70 41 L 71 40 L 71 36 L 70 36 L 70 37 L 44 62 L 43 60 L 45 57 L 47 50 L 43 51 L 35 55 L 33 54 L 35 51 L 36 47 L 28 50 L 27 54 L 25 57 L 25 59 L 20 69 L 26 69 L 29 63 L 31 61 L 33 61 L 34 60 L 36 61 L 36 63 L 34 66 L 36 66 L 39 64 L 41 65 L 37 69 L 44 69 L 48 67 L 54 60 L 60 61 L 61 62 L 61 68 L 60 69 L 71 69 L 72 68 L 75 68 L 76 67 L 78 67 L 85 64 L 87 65 L 87 68 L 86 69 L 92 69 L 94 65 L 94 63 L 96 61 L 104 59 L 108 56 L 109 58 L 107 61 L 106 65 L 112 66 L 113 65 L 116 65 L 117 64 L 120 64 L 122 63 L 121 60 L 119 60 L 118 61 L 115 61 L 114 60 L 120 57 L 120 55 L 118 56 L 116 55 L 118 53 L 122 53 L 124 52 L 127 49 Z M 166 35 L 163 35 L 162 36 L 151 38 L 147 40 L 147 44 L 143 52 L 141 60 L 138 65 L 146 63 L 146 61 L 149 58 L 151 46 L 165 35 Z M 46 34 L 31 38 L 28 40 L 26 40 L 20 43 L 15 44 L 5 49 L 0 50 L 0 55 L 2 54 L 5 54 L 6 53 L 10 53 L 11 52 L 14 52 L 15 53 L 14 58 L 12 61 L 12 63 L 9 69 L 16 69 L 24 54 L 24 52 L 26 48 L 35 43 Z" fill="#1F1F1F" fill-rule="evenodd"/>
<path d="M 147 63 L 150 63 L 151 64 L 156 64 L 157 65 L 156 64 L 157 63 L 155 63 L 149 60 L 148 60 Z" fill="#0057FF" fill-rule="evenodd"/>
</svg>